<svg width="13" height="12" viewBox="0 0 13 12" fill="none" xmlns="http://www.w3.org/2000/svg">
<path fill-rule="evenodd" clip-rule="evenodd" d="M3.07154 0C3.30823 0 3.50011 0.191878 3.50011 0.428571V0.857031H9.50011V0.428571C9.50011 0.191878 9.69199 0 9.92868 0C10.1654 0 10.3573 0.191878 10.3573 0.428571V0.857031H10.7857C11.7325 0.857031 12.5 1.62454 12.5 2.57132V10.2856C12.5 11.2324 11.7325 11.9999 10.7857 11.9999H2.21429C1.26751 11.9999 0.5 11.2324 0.5 10.2856V2.57132C0.5 1.62454 1.26751 0.857031 2.21429 0.857031H2.64297V0.428571C2.64297 0.191878 2.83485 0 3.07154 0ZM3.07154 1.71429L3.06166 1.71417H2.21429C1.7409 1.71417 1.35714 2.09793 1.35714 2.57132V3H11.6429V2.57132C11.6429 2.09793 11.2591 1.71417 10.7857 1.71417H9.93856L9.92868 1.71429L9.91881 1.71417H3.08142L3.07154 1.71429ZM11.6429 3.85714H1.35714V10.2856C1.35714 10.759 1.7409 11.1427 2.21429 11.1427H10.7857C11.2591 11.1427 11.6429 10.759 11.6429 10.2856V3.85714ZM8.21423 5.35711C8.21423 5.71215 7.92641 5.99997 7.57137 5.99997C7.21633 5.99997 6.92852 5.71215 6.92852 5.35711C6.92852 5.00207 7.21633 4.71426 7.57137 4.71426C7.92641 4.71426 8.21423 5.00207 8.21423 5.35711ZM9.71434 5.99997C10.0694 5.99997 10.3572 5.71215 10.3572 5.35711C10.3572 5.00207 10.0694 4.71426 9.71434 4.71426C9.3593 4.71426 9.07148 5.00207 9.07148 5.35711C9.07148 5.71215 9.3593 5.99997 9.71434 5.99997ZM8.21423 7.49989C8.21423 7.85493 7.92641 8.14275 7.57137 8.14275C7.21633 8.14275 6.92852 7.85493 6.92852 7.49989C6.92852 7.14485 7.21633 6.85703 7.57137 6.85703C7.92641 6.85703 8.21423 7.14485 8.21423 7.49989ZM9.71434 8.14275C10.0694 8.14275 10.3572 7.85493 10.3572 7.49989C10.3572 7.14485 10.0694 6.85703 9.71434 6.85703C9.3593 6.85703 9.07148 7.14485 9.07148 7.49989C9.07148 7.85493 9.3593 8.14275 9.71434 8.14275ZM3.92868 7.49989C3.92868 7.85493 3.64087 8.14275 3.28583 8.14275C2.93079 8.14275 2.64297 7.85493 2.64297 7.49989C2.64297 7.14485 2.93079 6.85703 3.28583 6.85703C3.64087 6.85703 3.92868 7.14485 3.92868 7.49989ZM5.4284 8.14275C5.78344 8.14275 6.07126 7.85493 6.07126 7.49989C6.07126 7.14485 5.78344 6.85703 5.4284 6.85703C5.07336 6.85703 4.78555 7.14485 4.78555 7.49989C4.78555 7.85493 5.07336 8.14275 5.4284 8.14275ZM3.92868 9.64286C3.92868 9.9979 3.64087 10.2857 3.28583 10.2857C2.93079 10.2857 2.64297 9.9979 2.64297 9.64286C2.64297 9.28782 2.93079 9 3.28583 9C3.64087 9 3.92868 9.28782 3.92868 9.64286ZM5.4284 10.2857C5.78344 10.2857 6.07126 9.9979 6.07126 9.64286C6.07126 9.28782 5.78344 9 5.4284 9C5.07336 9 4.78555 9.28782 4.78555 9.64286C4.78555 9.9979 5.07336 10.2857 5.4284 10.2857ZM8.21423 9.64286C8.21423 9.9979 7.92641 10.2857 7.57137 10.2857C7.21633 10.2857 6.92852 9.9979 6.92852 9.64286C6.92852 9.28782 7.21633 9 7.57137 9C7.92641 9 8.21423 9.28782 8.21423 9.64286Z" fill="black"/>
</svg>
