<svg width="24" height="21" viewBox="0 0 24 21" fill="none" xmlns="http://www.w3.org/2000/svg">
<path fill-rule="evenodd" clip-rule="evenodd" d="M5.45352 4.3343C6.35871 2.1064 8.62298 0 12 0C15.6325 0 18.7288 2.46969 19.4112 6.46699C20.3362 6.58034 21.3286 6.85562 22.1581 7.38273C23.2131 8.05315 24 9.13643 24 10.7062C24 12.2247 23.3532 13.3478 22.2895 14.058C21.2688 14.7394 19.9294 15 18.5625 15H15C14.5858 15 14.25 14.6642 14.25 14.25C14.25 13.8358 14.5858 13.5 15 13.5H18.5625C19.7737 13.5 20.7781 13.2635 21.4566 12.8104C22.0921 12.3862 22.5 11.7374 22.5 10.7062C22.5 9.72653 22.0447 9.08787 21.3536 8.64875C20.6276 8.18744 19.644 7.9577 18.7129 7.91158C18.3434 7.89328 18.0425 7.60836 18.0041 7.24046C17.6262 3.62504 15.0277 1.5 12 1.5C9.14101 1.5 7.31311 3.38607 6.71419 5.25399C6.62259 5.53966 6.36958 5.74327 6.07093 5.77164C4.7554 5.89661 3.59589 6.28541 2.78306 6.92268C1.99658 7.5393 1.5 8.41121 1.5 9.6375C1.5 10.8616 2.01799 11.7988 2.86056 12.449C3.72122 13.1132 4.95533 13.5 6.375 13.5H9C9.41421 13.5 9.75 13.8358 9.75 14.25C9.75 14.6642 9.41421 15 9 15H6.375C4.70092 15 3.12253 14.5459 1.94413 13.6365C0.747634 12.7131 0 11.344 0 9.6375C0 7.93317 0.722168 6.63242 1.85756 5.74224C2.84881 4.96507 4.12481 4.52133 5.45352 4.3343ZM12 8.25C12.4142 8.25 12.75 8.58579 12.75 9V18.4413L14.4701 16.7239C14.7632 16.4313 15.2381 16.4317 15.5307 16.7248C15.8234 17.0179 15.823 17.4928 15.5299 17.7854L12.5299 20.7807C12.2371 21.0731 11.7629 21.0731 11.4701 20.7807L8.47009 17.7854C8.17696 17.4928 8.17659 17.0179 8.46926 16.7248C8.76192 16.4317 9.23679 16.4313 9.52991 16.7239L11.25 18.4413V9C11.25 8.58579 11.5858 8.25 12 8.25Z" fill="white"/>
</svg>
