<svg width="20" height="21" viewBox="0 0 20 21" fill="none" xmlns="http://www.w3.org/2000/svg">
<path d="M19.9996 10.8298C19.9996 10.0244 19.9342 9.43666 19.7928 8.82715H10.5956V12.4624H15.9942C15.8854 13.3659 15.2976 14.7264 13.9915 15.6406L13.9732 15.7623L16.8812 18.0151L17.0826 18.0352C18.9329 16.3264 19.9996 13.8121 19.9996 10.8298Z" fill="#4285F4"/>
<path d="M10.5955 20.4078C13.2403 20.4078 15.4607 19.5371 17.0825 18.0351L13.9913 15.6405C13.1641 16.2174 12.0539 16.6201 10.5955 16.6201C8.00505 16.6201 5.80646 14.9113 5.02272 12.5494L4.90784 12.5592L1.88409 14.8993L1.84454 15.0092C3.45539 18.2092 6.7642 20.4078 10.5955 20.4078Z" fill="#34A853"/>
<path d="M5.02284 12.5495C4.81604 11.94 4.69636 11.2869 4.69636 10.6121C4.69636 9.93728 4.81604 9.28426 5.01196 8.67475L5.00648 8.54494L1.94484 6.16724L1.84466 6.21488C1.18076 7.54277 0.799805 9.03394 0.799805 10.6121C0.799805 12.1904 1.18076 13.6814 1.84466 15.0093L5.02284 12.5495Z" fill="#FBBC05"/>
<path d="M10.5955 4.60409C12.4349 4.60409 13.6757 5.39863 14.3832 6.06261L17.1477 3.36331C15.4499 1.78511 13.2403 0.816406 10.5955 0.816406C6.7642 0.816406 3.45539 3.015 1.84454 6.21493L5.01184 8.6748C5.80646 6.31293 8.00505 4.60409 10.5955 4.60409Z" fill="#EB4335"/>
</svg>
