<svg width="11" height="12" viewBox="0 0 11 12" fill="none" xmlns="http://www.w3.org/2000/svg">
<path d="M10.8314 10.3959L8.33776 7.90222C8.93812 7.10299 9.26221 6.13016 9.26112 5.13056C9.26112 2.57729 7.18383 0.5 4.63056 0.5C2.07729 0.5 0 2.57729 0 5.13056C0 7.68383 2.07729 9.76112 4.63056 9.76112C5.63016 9.76221 6.60299 9.43812 7.40222 8.83776L9.89586 11.3314C10.0221 11.4442 10.1867 11.5045 10.356 11.4997C10.5252 11.495 10.6862 11.4257 10.8059 11.3059C10.9257 11.1862 10.995 11.0252 10.9997 10.856C11.0045 10.6867 10.9442 10.5221 10.8314 10.3959ZM1.32302 5.13056C1.32302 4.47639 1.517 3.83691 1.88044 3.29299C2.24388 2.74906 2.76044 2.32513 3.36482 2.07479C3.96919 1.82445 4.63423 1.75895 5.27583 1.88657C5.91743 2.01419 6.50678 2.32921 6.96935 2.79177C7.43191 3.25434 7.74693 3.84369 7.87455 4.48529C8.00217 5.12689 7.93667 5.79193 7.68633 6.3963C7.43599 7.00068 7.01205 7.51724 6.46813 7.88068C5.92421 8.24412 5.28473 8.4381 4.63056 8.4381C3.75367 8.43705 2.91299 8.08824 2.29294 7.46818C1.67288 6.84813 1.32407 6.00745 1.32302 5.13056Z" fill="black"/>
</svg>
