<svg width="193" height="37" viewBox="0 0 193 37" fill="none" xmlns="http://www.w3.org/2000/svg">
<path d="M60.5001 6.11799L59.3016 6.89563C59.2077 6.72201 59.0837 6.54478 58.9371 6.3567C58.7868 6.17224 58.6441 6.01671 58.5088 5.89735C58.3172 5.76353 58.0955 5.65502 57.8363 5.56821C57.577 5.48141 57.2952 5.438 56.9834 5.438C56.3071 5.438 55.7548 5.62608 55.3378 6.00586C54.917 6.38564 54.7065 6.88116 54.7065 7.49242C54.7065 7.75645 54.7441 7.97347 54.8193 8.13985C54.8944 8.30623 55.0259 8.47622 55.2175 8.64983C55.3678 8.79451 55.5444 8.93195 55.7473 9.05855C55.9502 9.18514 56.2508 9.3262 56.6415 9.48896L57.9415 10.046C58.4562 10.2702 58.8733 10.48 59.1926 10.6753C59.512 10.867 59.7938 11.0768 60.038 11.3047C60.3649 11.6374 60.6091 12.0027 60.7706 12.4006C60.9322 12.7985 61.0149 13.2361 61.0149 13.7171C61.0149 14.9397 60.6053 15.9271 59.79 16.6758C58.9747 17.4281 57.9452 17.8007 56.7054 17.8007C56.093 17.7862 55.5406 17.6994 55.0522 17.5402C54.5638 17.3811 54.1279 17.1098 53.7447 16.7228C53.4178 16.4298 53.1473 16.0718 52.9294 15.645C52.7115 15.2182 52.5612 14.795 52.4785 14.3682L53.9438 13.9703C53.9852 14.3139 54.0753 14.6358 54.2181 14.9252C54.3609 15.2182 54.5412 15.4641 54.7592 15.6631C55.0034 15.9162 55.2814 16.1007 55.5932 16.2201C55.9051 16.3394 56.277 16.4009 56.7129 16.4009C57.4981 16.4009 58.1519 16.1694 58.6666 15.7028C59.1814 15.2363 59.4406 14.5924 59.4406 13.7678C59.4406 13.4603 59.3842 13.1818 59.279 12.9287C59.1701 12.6755 59.001 12.4368 58.7718 12.2125C58.6215 12.0931 58.4412 11.9738 58.2345 11.8544C58.0241 11.7351 57.6635 11.547 57.145 11.2974L55.9239 10.7404C55.3828 10.5017 54.9921 10.3064 54.7554 10.1545C54.5187 10.0026 54.3045 9.83257 54.1167 9.64449C53.7635 9.3262 53.5193 8.99344 53.384 8.64622C53.2488 8.30261 53.1811 7.90837 53.1811 7.47072C53.1811 6.46159 53.5381 5.63693 54.2519 5.00036C54.9658 4.36378 55.8825 4.04187 56.9984 4.04187C57.4192 4.05634 57.81 4.10697 58.1632 4.19016C58.5163 4.27697 58.8582 4.42526 59.1851 4.63866C59.4556 4.82313 59.7074 5.04376 59.929 5.29694C60.1432 5.55375 60.3386 5.82502 60.5001 6.11799Z" fill="black"/>
<path d="M85.7237 4.26233H88.2335C89.0751 4.2768 89.7664 4.35637 90.3074 4.50105C90.8485 4.64934 91.3181 4.88082 91.7164 5.19911C92.1297 5.55719 92.4453 5.98399 92.6594 6.47589C92.8736 6.96779 92.9825 7.49586 92.9825 8.05287C92.9825 9.22475 92.5843 10.1398 91.7915 10.7981C90.995 11.4564 89.9355 11.7855 88.6092 11.7855H87.2603V17.5762H85.7274V4.26233H85.7237ZM87.2566 5.66208V10.393H88.5228C89.4358 10.393 90.1459 10.1832 90.6606 9.76368C91.1716 9.34411 91.4346 8.74732 91.4496 7.97691C91.4346 7.21736 91.1678 6.64588 90.6493 6.25887C90.1308 5.87186 89.3794 5.67293 88.3988 5.65846H87.2566V5.66208Z" fill="black"/>
<path d="M106.41 4.26233V5.65846H100.77V9.61176H106.244V11.0079H100.77V16.1801H106.41V17.5762H99.2334V4.26233H106.41Z" fill="black"/>
<path d="M113.271 4.26233H115.491C116.265 4.2768 116.923 4.3419 117.46 4.46126C118.001 4.58062 118.463 4.76147 118.85 5.00018C119.335 5.31847 119.707 5.74165 119.97 6.26972C120.233 6.79418 120.364 7.35842 120.364 7.95521C120.364 8.9788 120.041 9.8324 119.398 10.5124C118.756 11.1924 117.918 11.5649 116.881 11.63L121.277 17.5799H119.417L115.198 11.7494H114.803V17.5799H113.271V4.26233ZM114.807 5.66208V10.4328H115.78C116.735 10.4473 117.482 10.2411 118.02 9.81431C118.561 9.38752 118.827 8.78349 118.827 7.99862C118.827 7.5465 118.733 7.15949 118.546 6.8412C118.358 6.52291 118.087 6.25526 117.727 6.04186C117.49 5.9225 117.223 5.82846 116.919 5.76335C116.614 5.69825 116.22 5.66208 115.735 5.66208H114.807Z" fill="black"/>
<path d="M55.671 25.4144C55.1976 25.4144 54.8256 25.5772 54.5551 25.9027C54.2846 26.2282 54.1493 26.6731 54.1531 27.2409C54.1568 27.8377 54.2883 28.2862 54.5476 28.5901C54.8106 28.8939 55.1863 29.0458 55.6822 29.0458C55.8964 29.0458 56.103 29.0241 56.3022 28.9807C56.5013 28.9409 56.7117 28.8866 56.9259 28.8215L56.9296 29.5015C56.5351 29.6462 56.0843 29.7185 55.5846 29.7222C54.8444 29.7258 54.2771 29.5124 53.8825 29.082C53.4843 28.6515 53.2852 28.0367 53.2814 27.2337C53.2814 26.7273 53.3753 26.2861 53.5669 25.9063C53.7586 25.5265 54.0328 25.2372 54.3973 25.0346C54.7617 24.8321 55.1863 24.7308 55.6747 24.7272C56.1895 24.7272 56.6666 24.8284 57.1025 25.0346L56.8094 25.6965C56.6403 25.6206 56.46 25.5518 56.2684 25.494C56.0805 25.4433 55.8814 25.4144 55.671 25.4144Z" fill="black"/>
<path d="M63.7121 27.2008C63.7158 27.993 63.513 28.6078 63.1034 29.0455C62.6939 29.4867 62.1153 29.7074 61.3601 29.7074C60.5974 29.711 60.015 29.494 59.6017 29.0599C59.1922 28.6259 58.9856 28.0074 58.9818 27.2081C58.978 26.4051 59.1809 25.7902 59.5905 25.3598C60 24.9294 60.5861 24.7124 61.3451 24.7088C62.0965 24.7052 62.6751 24.9222 63.0846 25.3562C63.5017 25.7939 63.7083 26.4087 63.7121 27.2008ZM59.861 27.2117C59.861 27.8085 59.9887 28.2642 60.2405 28.5717C60.4922 28.8791 60.8641 29.0346 61.3563 29.031C61.8448 29.031 62.2167 28.8755 62.4647 28.568C62.7127 28.2606 62.8367 27.8049 62.8329 27.2008C62.8291 26.6041 62.7052 26.1556 62.4572 25.8481C62.2092 25.5407 61.841 25.3888 61.3488 25.3888C60.8529 25.3888 60.4809 25.5443 60.2292 25.8554C59.9812 26.1664 59.8572 26.6185 59.861 27.2117Z" fill="black"/>
<path d="M69.2121 25.899C69.2121 26.2173 69.1069 26.4741 68.889 26.6766C68.671 26.8792 68.3705 27.0094 67.9872 27.0636V27.0853C68.4306 27.136 68.765 27.259 68.9979 27.4579C69.2309 27.6568 69.3473 27.9209 69.3473 28.2428C69.3473 28.6949 69.167 29.0493 68.7988 29.3025C68.4343 29.5593 67.9271 29.6859 67.2809 29.6895C66.6083 29.6931 66.0711 29.6063 65.6691 29.4327L65.6653 28.7383C65.887 28.8396 66.1387 28.9191 66.4167 28.9734C66.6948 29.0276 66.9465 29.0566 67.1794 29.0529C68.0661 29.0493 68.5057 28.7708 68.5057 28.2102C68.5057 27.9534 68.3705 27.7581 68.1037 27.6243C67.8369 27.4904 67.4424 27.4253 66.9202 27.4253L66.3115 27.4289L66.3078 26.7924H66.8789C67.8858 26.7888 68.3855 26.5283 68.3855 26.0147C68.3855 25.8086 68.2991 25.6458 68.1262 25.5264C67.9534 25.4071 67.713 25.3492 67.4049 25.3492C67.1607 25.3492 66.9277 25.3818 66.7098 25.4433C66.4881 25.5047 66.2589 25.6132 66.026 25.7615L65.6465 25.2262C66.1612 24.879 66.7737 24.7054 67.4725 24.7018C68.006 24.7018 68.4268 24.8103 68.7387 25.0273C69.0543 25.2407 69.2083 25.5337 69.2121 25.899Z" fill="black"/>
<path d="M70.9601 28.9334H71.3508C71.6815 28.3439 71.9595 27.6856 72.1812 26.955C72.4028 26.2244 72.5456 25.4901 72.6095 24.7559L75.2132 24.7487L75.2282 28.9226L75.882 28.919L75.8895 30.9372L75.0967 30.9408L75.093 29.6026L71.7604 29.6134L71.7641 30.9517L70.9714 30.9553L70.9601 28.9334ZM73.3008 25.4395C73.252 25.9422 73.1242 26.5246 72.9213 27.1901C72.7184 27.8556 72.4817 28.4343 72.2187 28.9298L74.4016 28.9226L74.3904 25.4359L73.3008 25.4395Z" fill="black"/>
<path d="M81.0462 29.5845L80.539 28.239L78.6116 28.2463L78.1231 29.5954L77.2552 29.599L79.1263 24.7161L80.0243 24.7125L81.9292 29.5845H81.0462ZM80.3173 27.5518L79.8402 26.2316C79.8064 26.1448 79.7575 26.0038 79.6974 25.8121C79.6373 25.6204 79.5922 25.4829 79.5697 25.3925C79.5095 25.6638 79.4194 25.964 79.2991 26.2859L78.8483 27.5518H80.3173Z" fill="black"/>
<path d="M86.6646 29.5663L83.8129 29.5735L83.7979 24.716L86.6496 24.7087L86.6534 25.3779L84.6245 25.3851L84.6282 26.7053L86.5294 26.6981L86.5331 27.3636L84.632 27.3708L84.6358 28.8971L86.6646 28.8899V29.5663Z" fill="black"/>
<path d="M91.1582 29.552L89.6816 25.5011H89.6553C89.6967 26.1051 89.7192 26.6693 89.7192 27.1938L89.7267 29.5556L88.979 29.5593L88.964 24.7017L90.125 24.6981L91.5377 28.5574H91.5565L92.988 24.6909L94.1527 24.6873L94.1677 29.5448L93.3749 29.5484L93.3674 27.1468C93.3674 26.9044 93.3712 26.5898 93.3825 26.2027C93.3937 25.8157 93.405 25.5806 93.4125 25.4974H93.3862L91.8833 29.552H91.1582Z" fill="black"/>
<path d="M103.6 24.6582L102.022 28.116C101.827 28.5391 101.651 28.8466 101.489 29.0347C101.327 29.2227 101.136 29.3638 100.922 29.4542C100.707 29.5446 100.448 29.588 100.14 29.588C99.8734 29.588 99.6254 29.5555 99.3962 29.4904L99.3924 28.7778C99.6179 28.8647 99.8546 28.9044 100.099 28.9044C100.309 28.9044 100.482 28.8538 100.625 28.7561C100.768 28.6585 100.895 28.4776 101.008 28.2208L99.137 24.669L100.027 24.6654L101.267 27.096C101.38 27.3275 101.448 27.4794 101.47 27.5553H101.504C101.519 27.4975 101.553 27.407 101.605 27.2804L102.733 24.6545L103.6 24.6582Z" fill="black"/>
<path d="M109.29 29.4979L108.464 29.5015L108.448 25.3276L107.013 25.3312C106.837 26.7491 106.694 27.7148 106.585 28.2248C106.476 28.7384 106.326 29.0928 106.127 29.2954C105.931 29.4979 105.668 29.5956 105.341 29.5883C105.172 29.5883 105.014 29.563 104.86 29.5052L104.857 28.8433C104.988 28.8975 105.116 28.9264 105.24 28.9264C105.405 28.9264 105.533 28.8288 105.627 28.6371C105.721 28.4454 105.818 28.0222 105.931 27.3639C106.04 26.7093 106.172 25.8014 106.322 24.6476L109.268 24.6404L109.29 29.4979Z" fill="black"/>
<path d="M115.187 28.0183C115.187 28.4994 115.029 28.8647 114.706 29.1106C114.383 29.3566 113.91 29.4832 113.282 29.4868L111.843 29.4904L111.828 24.6329L112.655 24.6293L112.662 26.6041H113.248C113.88 26.6005 114.361 26.7235 114.691 26.9658C115.018 27.2081 115.183 27.559 115.187 28.0183ZM112.666 28.8285H113.233C113.602 28.8285 113.88 28.7634 114.068 28.6368C114.255 28.5102 114.349 28.3041 114.349 28.0256C114.349 27.7615 114.255 27.5698 114.075 27.4541C113.895 27.3347 113.587 27.2768 113.155 27.2805H112.662L112.666 28.8285ZM116.724 29.4759L115.897 29.4796L115.882 24.622L116.709 24.6184L116.724 29.4759Z" fill="black"/>
<path d="M122.688 27.9966C122.692 28.9696 122.046 29.4615 120.746 29.4651L119.277 29.4687L119.262 24.6112L122.339 24.6003L122.343 25.2803L120.088 25.2876L120.092 26.5788H120.693C122.02 26.5788 122.685 27.049 122.688 27.9966ZM120.1 28.7996H120.693C121.088 28.7996 121.377 28.7345 121.561 28.6079C121.745 28.4813 121.836 28.2788 121.836 28.0002C121.836 27.7326 121.742 27.5409 121.557 27.4215C121.373 27.3022 121.05 27.2443 120.588 27.2479H120.096L120.1 28.7996Z" fill="black"/>
<path d="M128.789 29.4398L127.82 29.4434L125.734 26.9875L125.742 29.4507L124.915 29.4543L124.9 24.5967L125.727 24.5931L125.734 26.9441L127.771 24.5859L128.676 24.5823L126.647 26.9333L128.789 29.4398Z" fill="black"/>
<path d="M130.661 24.5787L131.416 24.5751L131.424 27.0997C131.424 27.3637 131.42 27.6277 131.405 27.899C131.394 28.1667 131.383 28.3511 131.375 28.4452H131.405L133.971 24.5678L134.933 24.5642L134.948 29.4217L134.189 29.4254L134.182 26.9224C134.182 26.5391 134.201 26.0725 134.242 25.5263H134.216L131.642 29.4326L130.676 29.4362L130.661 24.5787Z" fill="black"/>
<path d="M142.687 25.1535C142.213 25.1535 141.841 25.3163 141.571 25.6418C141.3 25.9673 141.165 26.4122 141.169 26.9801C141.169 27.5769 141.304 28.0254 141.563 28.3292C141.826 28.633 142.202 28.7849 142.698 28.7849C142.912 28.7849 143.119 28.7632 143.318 28.7198C143.517 28.68 143.728 28.6258 143.942 28.5607L143.945 29.2407C143.551 29.3853 143.1 29.4577 142.6 29.4613C141.86 29.4649 141.293 29.2515 140.898 28.8211C140.5 28.3907 140.301 27.7758 140.301 26.9728C140.301 26.4665 140.395 26.0252 140.583 25.6454C140.774 25.2656 141.052 24.9763 141.413 24.7737C141.778 24.5712 142.202 24.4699 142.691 24.4663C143.205 24.4663 143.682 24.5676 144.122 24.7737L143.829 25.4356C143.66 25.3597 143.48 25.291 143.288 25.2331C143.096 25.1825 142.897 25.1535 142.687 25.1535Z" fill="black"/>
<path d="M151.34 29.3713L150.528 29.3749L150.517 26.239C150.517 25.8665 150.524 25.5662 150.543 25.3492C150.49 25.4035 150.427 25.4614 150.348 25.5265C150.269 25.5916 150.013 25.7941 149.574 26.1413L149.164 25.6494L150.644 24.521L151.321 24.5173L151.34 29.3713Z" fill="black"/>
<path d="M157.618 26.572C157.622 27.5305 157.423 28.243 157.024 28.7168C156.626 29.1906 156.025 29.4257 155.217 29.4293C154.913 29.4293 154.691 29.4149 154.56 29.3787L154.556 28.724C154.763 28.7783 154.965 28.8072 155.172 28.8036C155.721 28.8036 156.126 28.6589 156.397 28.3732C156.664 28.0875 156.81 27.6426 156.833 27.0349H156.791C156.656 27.2339 156.495 27.3785 156.303 27.469C156.111 27.5594 155.886 27.6028 155.631 27.6028C155.183 27.6028 154.834 27.4726 154.579 27.2049C154.323 26.9373 154.192 26.572 154.192 26.1018C154.192 25.5954 154.338 25.1903 154.631 24.8901C154.928 24.5899 155.33 24.438 155.837 24.438C156.198 24.438 156.51 24.5212 156.776 24.6876C157.043 24.8539 157.25 25.0999 157.396 25.4182C157.543 25.7401 157.618 26.1235 157.618 26.572ZM155.852 25.089C155.57 25.089 155.356 25.1795 155.21 25.3567C155.059 25.5339 154.988 25.7799 154.988 26.0982C154.988 26.3767 155.059 26.5937 155.198 26.7492C155.337 26.9083 155.548 26.9843 155.833 26.9843C156.108 26.9843 156.337 26.9047 156.521 26.7456C156.705 26.5864 156.799 26.4056 156.799 26.1922C156.799 25.9969 156.758 25.8124 156.679 25.6388C156.6 25.4688 156.487 25.3314 156.344 25.2337C156.202 25.1361 156.036 25.089 155.852 25.089Z" fill="black"/>
<path d="M161.157 24.4233C161.634 24.4233 162.013 24.5282 162.291 24.738C162.569 24.9478 162.712 25.2299 162.712 25.5844C162.712 26.0835 162.404 26.4814 161.784 26.778C162.179 26.966 162.46 27.165 162.629 27.3784C162.798 27.5881 162.881 27.8232 162.881 28.08C162.881 28.4815 162.731 28.8034 162.427 29.0458C162.122 29.2881 161.709 29.4111 161.187 29.4111C160.638 29.4111 160.214 29.3026 159.913 29.0747C159.612 28.8505 159.458 28.5285 159.458 28.1162C159.458 27.8449 159.537 27.6026 159.691 27.3856C159.849 27.1686 160.105 26.9769 160.465 26.8069C160.157 26.6297 159.935 26.4452 159.804 26.2463C159.672 26.051 159.605 25.8267 159.605 25.5808C159.605 25.2299 159.748 24.9478 160.033 24.738C160.322 24.5318 160.694 24.427 161.157 24.4233ZM160.236 28.0873C160.236 28.3188 160.322 28.496 160.492 28.6226C160.661 28.7492 160.886 28.8107 161.175 28.8107C161.472 28.8107 161.701 28.7419 161.867 28.6117C162.032 28.4779 162.111 28.3007 162.111 28.0728C162.111 27.892 162.032 27.7292 161.882 27.5809C161.728 27.4326 161.498 27.2952 161.19 27.1722L161.089 27.1288C160.785 27.259 160.567 27.4001 160.435 27.5556C160.3 27.7111 160.236 27.8883 160.236 28.0873ZM161.153 25.0237C160.924 25.0237 160.736 25.078 160.597 25.1901C160.458 25.2986 160.386 25.4505 160.386 25.6386C160.386 25.7544 160.413 25.8556 160.465 25.9461C160.518 26.0365 160.589 26.1197 160.687 26.192C160.785 26.2644 160.946 26.3548 161.179 26.4597C161.453 26.3403 161.649 26.2173 161.761 26.0871C161.874 25.9569 161.931 25.805 161.931 25.6314C161.931 25.4433 161.859 25.295 161.716 25.1865C161.577 25.078 161.39 25.0237 161.153 25.0237Z" fill="black"/>
<path d="M168.13 26.5393C168.133 27.4941 167.934 28.2103 167.536 28.6841C167.138 29.1579 166.537 29.393 165.729 29.3966C165.425 29.3966 165.203 29.3822 165.071 29.346L165.068 28.6913C165.274 28.7456 165.477 28.7745 165.684 28.7709C166.232 28.7709 166.638 28.6262 166.909 28.3405C167.175 28.0547 167.322 27.6099 167.344 27.0022H167.303C167.168 27.2012 167.006 27.3458 166.815 27.4363C166.623 27.5267 166.398 27.5701 166.142 27.5701C165.695 27.5701 165.346 27.4399 165.09 27.1722C164.835 26.9046 164.703 26.5393 164.703 26.0691C164.703 25.5627 164.85 25.1576 165.143 24.8574C165.44 24.5572 165.842 24.4053 166.353 24.4053C166.713 24.4053 167.025 24.4885 167.292 24.6548C167.559 24.8212 167.765 25.0672 167.912 25.3855C168.055 25.7074 168.13 26.0908 168.13 26.5393ZM166.364 25.0563C166.082 25.0563 165.868 25.1467 165.721 25.324C165.571 25.5012 165.5 25.7472 165.5 26.0654C165.5 26.3439 165.571 26.561 165.71 26.7165C165.849 26.8756 166.059 26.9516 166.345 26.9516C166.619 26.9516 166.848 26.872 167.033 26.7129C167.217 26.5537 167.311 26.3729 167.311 26.1595C167.311 25.9642 167.269 25.7797 167.19 25.6061C167.111 25.4361 166.999 25.2987 166.856 25.201C166.713 25.1033 166.548 25.0563 166.364 25.0563Z" fill="black"/>
<path d="M176.597 24.4409L176.601 25.1209L174.429 25.1281L174.444 29.3021L173.618 29.3057L173.603 24.4482L176.597 24.4409Z" fill="black"/>
<path d="M178.268 28.8756C178.268 28.7128 178.309 28.5898 178.399 28.503C178.486 28.4162 178.613 28.3728 178.779 28.3728C178.948 28.3728 179.076 28.4162 179.162 28.5066C179.248 28.5971 179.293 28.72 179.293 28.8719C179.293 29.0275 179.248 29.1541 179.162 29.2445C179.072 29.3349 178.948 29.3819 178.782 29.3819C178.617 29.3819 178.489 29.3385 178.403 29.2481C178.313 29.1613 178.271 29.0347 178.268 28.8756Z" fill="black"/>
<path d="M135.023 6.11811L133.824 6.89575C133.73 6.72213 133.606 6.54491 133.46 6.35683C133.309 6.17236 133.167 6.01683 133.031 5.89748C132.84 5.76365 132.618 5.65514 132.359 5.56834C132.099 5.48153 131.818 5.43813 131.506 5.43813C130.83 5.43813 130.277 5.62621 129.86 6.00598C129.439 6.38576 129.229 6.88128 129.229 7.49254C129.229 7.75658 129.267 7.97359 129.342 8.13997C129.417 8.30635 129.548 8.47634 129.74 8.64996C129.89 8.79463 130.067 8.93208 130.27 9.05867C130.473 9.18526 130.773 9.32632 131.164 9.48908L132.464 10.0461C132.979 10.2703 133.396 10.4801 133.715 10.6754C134.034 10.8671 134.316 11.0769 134.56 11.3048C134.887 11.6375 135.132 12.0028 135.293 12.4007C135.455 12.7986 135.537 13.2362 135.537 13.7173C135.537 14.9398 135.128 15.9272 134.312 16.6759C133.497 17.4282 132.468 17.8008 131.228 17.8008C130.615 17.7863 130.063 17.6995 129.575 17.5404C129.086 17.3812 128.65 17.1099 128.267 16.7229C127.94 16.43 127.67 16.0719 127.452 15.6451C127.234 15.2183 127.084 14.7951 127.001 14.3683L128.466 13.9705C128.508 14.3141 128.598 14.636 128.741 14.9253C128.883 15.2183 129.064 15.4642 129.282 15.6632C129.526 15.9164 129.804 16.1008 130.116 16.2202C130.428 16.3395 130.799 16.401 131.235 16.401C132.021 16.401 132.674 16.1695 133.189 15.703C133.704 15.2364 133.963 14.5926 133.963 13.7679C133.963 13.4605 133.907 13.182 133.801 12.9288C133.693 12.6756 133.523 12.4369 133.294 12.2126C133.144 12.0933 132.964 11.9739 132.757 11.8546C132.547 11.7352 132.186 11.5471 131.667 11.2975L130.446 10.7405C129.905 10.5018 129.515 10.3065 129.278 10.1546C129.041 10.0027 128.827 9.83269 128.639 9.64461C128.286 9.32632 128.042 8.99357 127.906 8.64634C127.771 8.30273 127.704 7.90849 127.704 7.47084C127.704 6.46172 128.061 5.63706 128.774 5.00048C129.488 4.3639 130.405 4.04199 131.521 4.04199C131.942 4.05646 132.332 4.1071 132.686 4.19029C133.039 4.27709 133.381 4.42539 133.708 4.63879C133.978 4.82325 134.226 5.04388 134.451 5.29707C134.662 5.55387 134.857 5.82514 135.023 6.11811Z" fill="black"/>
<path d="M164.453 4.26245H165.986V17.58H164.453V4.26245Z" fill="black"/>
<path d="M173.594 4.26233H175.127V16.1801H178.944V17.5762H173.594V4.26233Z" fill="black"/>
<path d="M192.233 4.26245V5.65859H186.593V9.61189H192.068V11.008H186.593V16.1802H192.233V17.5764H185.057V4.26245H192.233Z" fill="black"/>
<path d="M80.2536 8.68241C79.5623 11.6338 77.5034 15.8475 73.7274 16.0248C71.2289 16.1405 69.4893 14.6106 67.8399 11.1709C67.8174 11.1275 67.7761 10.9177 67.5431 11.0515C67.1824 11.2577 66.1943 11.9955 65.7998 12.3355C65.672 12.444 65.7059 12.5417 65.7697 12.6646C67.8925 16.6831 70.6202 17.9381 73.5058 17.7935C77.9242 17.5764 80.449 12.6574 81.2493 8.75113C81.2568 8.7222 81.2831 8.54858 81.1403 8.51603C80.975 8.47986 80.5993 8.41837 80.4453 8.41837C80.31 8.41114 80.2612 8.64986 80.2536 8.68241Z" fill="black"/>
<path d="M17.858 29.4726C11.3055 25.4325 3.56192 19.7431 2.53997 11.8365C2.09662 8.40042 2.818 4.21925 5.89888 2.07803C4.94832 2.61333 4.65526 3.098 3.70469 3.62969C9.86647 0.529979 17.2719 5.77453 21.3935 9.64464C21.5663 9.8074 22.6296 8.81275 23.4186 8.3317C23.6816 8.17255 23.5914 7.81809 23.4186 7.66256C17.7115 2.54823 7.55204 -2.56249 2.16049 5.05476C-4.87671 14.9977 6.81939 27.7763 15.1791 31.6175C15.5436 31.7839 17.3132 30.6518 18.0834 30.1599C18.3464 29.9899 18.1285 29.639 17.858 29.4726Z" fill="black"/>
<path d="M24.5083 2.30214C34.4686 -0.363532 41.919 7.57924 37.7598 17.6849C34.059 26.6694 27.1045 32.102 18.9739 36.9451C18.9627 36.9523 19.0002 37.0066 19.0115 36.9993C26.2554 32.8797 33.5894 28.6659 38.1431 21.6129C41.2428 16.8096 43.5722 10.8453 40.8971 5.22462C37.9815 -0.887986 30.8391 -0.866284 25.2973 1.39068C24.9403 1.53536 24.606 1.72705 24.2753 1.9296C23.6592 2.313 23.817 2.49023 24.5083 2.30214Z" fill="black"/>
<path d="M149.668 14.7624L144.708 4.26245H144.239L142.056 17.58H143.634L145.001 8.31341L149.382 17.58H149.916L154.357 8.34235L155.668 17.58H157.238L155.198 4.26245H154.717L149.668 14.7624Z" fill="black"/>
</svg>
