<svg width="21" height="21" viewBox="0 0 21 21" fill="none" xmlns="http://www.w3.org/2000/svg">
<path fill-rule="evenodd" clip-rule="evenodd" d="M4.49989 0C4.9141 0 5.24989 0.335786 5.24989 0.75V1.49992H15.7499V0.75C15.7499 0.335786 16.0857 0 16.4999 0C16.9141 0 17.2499 0.335786 17.2499 0.75V1.49992H18C19.6569 1.49992 21 2.84306 21 4.49992V17.9999C21 19.6568 19.6569 20.9999 18 20.9999H3C1.34315 20.9999 0 19.6568 0 17.9999V4.49992C0 2.84306 1.34315 1.49992 3 1.49992H3.74989V0.75C3.74989 0.335786 4.08568 0 4.49989 0ZM4.49989 3L4.48872 2.99992H3C2.17157 2.99992 1.5 3.67149 1.5 4.49992V5.25H19.5V4.49992C19.5 3.67149 18.8284 2.99992 18 2.99992H16.5111L16.4999 3L16.4887 2.99992H4.51106L4.49989 3ZM19.5 6.75H1.5V17.9999C1.5 18.8283 2.17157 19.4999 3 19.4999H18C18.8284 19.4999 19.5 18.8283 19.5 17.9999V6.75ZM13.5001 9.37503C13.5001 9.99635 12.9964 10.5 12.3751 10.5C11.7537 10.5 11.2501 9.99635 11.2501 9.37503C11.2501 8.75371 11.7537 8.25003 12.3751 8.25003C12.9964 8.25003 13.5001 8.75371 13.5001 9.37503ZM16.1249 10.5C16.7463 10.5 17.2499 9.99635 17.2499 9.37503C17.2499 8.75371 16.7463 8.25003 16.1249 8.25003C15.5036 8.25003 14.9999 8.75371 14.9999 9.37503C14.9999 9.99635 15.5036 10.5 16.1249 10.5ZM13.5001 13.1249C13.5001 13.7462 12.9964 14.2499 12.3751 14.2499C11.7537 14.2499 11.2501 13.7462 11.2501 13.1249C11.2501 12.5036 11.7537 11.9999 12.3751 11.9999C12.9964 11.9999 13.5001 12.5036 13.5001 13.1249ZM16.1249 14.2499C16.7463 14.2499 17.2499 13.7462 17.2499 13.1249C17.2499 12.5036 16.7463 11.9999 16.1249 11.9999C15.5036 11.9999 14.9999 12.5036 14.9999 13.1249C14.9999 13.7462 15.5036 14.2499 16.1249 14.2499ZM5.99989 13.1249C5.99989 13.7462 5.49621 14.2499 4.87489 14.2499C4.25357 14.2499 3.74989 13.7462 3.74989 13.1249C3.74989 12.5036 4.25357 11.9999 4.87489 11.9999C5.49621 11.9999 5.99989 12.5036 5.99989 13.1249ZM8.62516 14.2499C9.24648 14.2499 9.75016 13.7462 9.75016 13.1249C9.75016 12.5036 9.24648 11.9999 8.62516 11.9999C8.00384 11.9999 7.50016 12.5036 7.50016 13.1249C7.50016 13.7462 8.00384 14.2499 8.62516 14.2499ZM5.99989 16.875C5.99989 17.4963 5.49621 18 4.87489 18C4.25357 18 3.74989 17.4963 3.74989 16.875C3.74989 16.2537 4.25357 15.75 4.87489 15.75C5.49621 15.75 5.99989 16.2537 5.99989 16.875ZM8.62516 18C9.24648 18 9.75016 17.4963 9.75016 16.875C9.75016 16.2537 9.24648 15.75 8.62516 15.75C8.00384 15.75 7.50016 16.2537 7.50016 16.875C7.50016 17.4963 8.00384 18 8.62516 18ZM13.5001 16.875C13.5001 17.4963 12.9964 18 12.3751 18C11.7537 18 11.2501 17.4963 11.2501 16.875C11.2501 16.2537 11.7537 15.75 12.3751 15.75C12.9964 15.75 13.5001 16.2537 13.5001 16.875Z" fill="black"/>
</svg>
