<svg width="10" height="18" viewBox="0 0 10 18" fill="none" xmlns="http://www.w3.org/2000/svg">
<path d="M9.91075 0C10.0615 0.113884 9.98612 0.247452 9.93808 0.374833L8.02705 5.46306L5.71211 11.6831C5.66335 11.8118 5.63785 11.9477 5.63674 12.0849V17.6554C5.63674 17.9928 5.62984 17.9928 5.2875 17.9928C4.93136 17.9928 4.57521 17.9793 4.21907 17.9996C3.99295 18.0063 3.91125 17.9327 3.91758 17.7116L3.92449 15.6496V12.0711C3.92449 11.9305 3.90435 11.7765 3.84912 11.6426L0.1027 2.062C0.0753711 1.98833 0.0342335 1.92815 0 1.86123V1.72063C0.109317 1.68689 0.21921 1.63627 0.328814 1.63627L1.51404 1.62953C1.51404 1.62953 1.90442 1.62953 2.03474 1.99114L4.8252 9.67058L4.94171 9.94503L5.03751 9.63712L5.58553 7.6755L8.03079 0.277258C8.06531 0.18362 8.14729 0.102917 8.20914 0.0157469L9.91075 0Z" fill="#E52620"/>
</svg>
